<svg xmlns="http://www.w3.org/2000/svg" width="1698.75" height="2032.5" viewBox="0 0 1359.000000 1626.000000"><g transform="matrix(.1 0 0-.1 0 1626)"><path d="m6568 15818c-190-447-556-1022-1208-1898-291-391-423-577-574-808-1383-2116-1756-4134-1191-6438 125-507 240-842 432-1259 450-974 1271-2013 2207-2791 216-179 317-254 343-254 15 0 49 32 112 106l91 105v2568c0 2553 0 2568-20 2594-11 14-20 32-20 40 0 9-246 232-547 498-302 265-559 492-571 503l-24 21-25-30c-13-16-36-45-50-63l-26-33 337-504 336-505-2-1580-3-1580-125 106c-169 144-571 549-704 709-423 508-682 959-870 1514-147 433-221 863-233 1346-11 457 35 889 148 1400 55 250 182 732 236 900 162 500 595 1407 1165 2445 285 517 401 715 409 694 4-10 24-75 43-142 20-68 57-176 83-240 95-242 265-588 283-577 4 3 15-6 24-20 24-36 44-31 105 25l54 50-7 68c-26 291-31 2101-6 2662 8 195 8 206-11 232-10 15-19 33-19 40 0 14-130 148-142 148-4 0-18-24-30-52"/><path d="m6988 15803l-66-68 9-180c24-524 19-2490-7-2720l-6-50 77-77c81-82 107-97 131-77 21 17 129 235 205 411 70 162 160 430 180 531 7 37 18 72 25 78 9 7 42-44 127-193 695-1225 1203-2259 1410-2868 65-188 212-758 271-1045 93-454 120-717 121-1165 0-415-16-596-85-938-153-755-492-1438-1046-2107-120-145-568-597-711-718l-93-78v1531 1531l326 486c180 267 329 494 331 504 7 25-38 113-86 169l-39 44-38-34c-22-18-279-245-571-503l-533-470v-2573-2573l121-140c81-94 128-141 142-141 65 0 645 496 972 831 843 865 1443 1801 1767 2759 208 614 359 1366 420 2085 17 199 17 904 0 1095-111 1266-484 2354-1236 3605-225 374-423 662-826 1205-589 792-850 1194-1090 1675-67 135-125 245-129 245-3 0-36-30-73-67"/><path d="m6525 2148c-3-7-84-301-180-652l-175-639v-213-214h29c25 0 30-4 33-27l3-28h270 270l3 848c2 842 2 849-18 854-16 4-20 14-20 44v39h-105c-75 0-107-4-110-12"/><path d="m6920 1295v-865h29c25 0 30-4 33-27l3-28h270 270l2 210 3 210-175 635c-102 371-180 639-189 645-8 6-17 28-21 48l-7 37h-109-109v-865"/></g></svg>